<svg width="58" height="58" viewBox="0 0 58 58" fill="none" xmlns="http://www.w3.org/2000/svg">
<path d="M28.9999 58C45.0161 58 57.9999 45.0163 57.9999 29C57.9999 12.9837 45.0161 0 28.9999 0C12.9836 0 -0.00012207 12.9837 -0.00012207 29C-0.00012207 45.0163 12.9836 58 28.9999 58Z" fill="#0B196D"/>
<path d="M27.3214 40.667C21.623 39.8324 17.2498 34.9199 17.2498 28.984C17.2498 23.0481 21.623 18.1357 27.3214 17.3016V11.1538C18.249 12.0216 11.1538 19.6731 11.1538 28.984C11.1538 38.295 18.249 45.9461 27.3214 46.8143V40.667Z" fill="white"/>
<path d="M39.1476 17.3999L38.9893 17.938V33.5519L39.1476 33.7099L46.3954 29.4257L39.1476 17.3999Z" fill="white"/>
<path d="M39.1477 17.3999L31.8999 29.4257L39.1477 33.7099V26.1314V17.3999Z" fill="white"/>
<path d="M39.1479 36.0676L39.0587 36.1764V41.7384L39.1479 41.9989L46.4001 31.7856L39.1479 36.0676Z" fill="white"/>
<path d="M39.1477 41.999V36.0676L31.8999 31.7856L39.1477 41.999Z" fill="white"/>
<path d="M39.1477 33.7097L46.3954 29.4256L39.1477 26.1313V33.7097Z" fill="white"/>
<path d="M31.8999 29.4257L39.1476 33.7098V26.1313L31.8999 29.4257Z" fill="white"/>
</svg>
